<mxfile host="app.diagrams.net" agent="Mozilla/5.0 (Windows NT 10.0; Win64; x64) AppleWebKit/537.36 (KHTML, like Gecko) Chrome/136.0.0.0 Safari/537.36" version="26.1.1">
  <diagram name="Página-1" id="qymr9s4ONJAOOVNrwKgb">
    <mxGraphModel dx="1154" dy="1364" grid="1" gridSize="10" guides="1" tooltips="1" connect="1" arrows="1" fold="1" page="1" pageScale="1" pageWidth="1169" pageHeight="827" math="0" shadow="0">
      <root>
        <mxCell id="0" />
        <mxCell id="1" parent="0" />
        <mxCell id="IwEzYZkcwkZSoT2hH-HC-21" value="" style="rounded=0;whiteSpace=wrap;html=1;dashed=1;gradientColor=default;fillColor=none;" vertex="1" parent="1">
          <mxGeometry x="310" y="-40" width="690" height="300" as="geometry" />
        </mxCell>
        <mxCell id="IwEzYZkcwkZSoT2hH-HC-13" value="" style="rounded=0;whiteSpace=wrap;html=1;dashed=1;gradientColor=default;fillColor=none;" vertex="1" parent="1">
          <mxGeometry x="600" y="-10" width="370" height="250" as="geometry" />
        </mxCell>
        <mxCell id="2Nlbmb2SEIiZ4BsPeOTe-20" value="" style="rounded=0;whiteSpace=wrap;html=1;dashed=1;gradientColor=default;fillColor=none;" parent="1" vertex="1">
          <mxGeometry x="340" y="-10" width="250" height="250" as="geometry" />
        </mxCell>
        <mxCell id="IwEzYZkcwkZSoT2hH-HC-3" value="" style="rounded=0;whiteSpace=wrap;html=1;dashed=1;gradientColor=default;fillColor=none;" vertex="1" parent="1">
          <mxGeometry x="310" y="274" width="690" height="280" as="geometry" />
        </mxCell>
        <mxCell id="2Nlbmb2SEIiZ4BsPeOTe-3" value="carga" style="whiteSpace=wrap;html=1;aspect=fixed;" parent="1" vertex="1">
          <mxGeometry x="640" y="320" width="80" height="80" as="geometry" />
        </mxCell>
        <mxCell id="2Nlbmb2SEIiZ4BsPeOTe-17" style="edgeStyle=orthogonalEdgeStyle;rounded=0;orthogonalLoop=1;jettySize=auto;html=1;entryX=0.5;entryY=1;entryDx=0;entryDy=0;" parent="1" source="2Nlbmb2SEIiZ4BsPeOTe-5" target="2Nlbmb2SEIiZ4BsPeOTe-3" edge="1">
          <mxGeometry relative="1" as="geometry" />
        </mxCell>
        <mxCell id="2Nlbmb2SEIiZ4BsPeOTe-5" value="dados refinados" style="shape=cylinder3;whiteSpace=wrap;html=1;boundedLbl=1;backgroundOutline=1;size=15;" parent="1" vertex="1">
          <mxGeometry x="530" y="430" width="70" height="80" as="geometry" />
        </mxCell>
        <mxCell id="2Nlbmb2SEIiZ4BsPeOTe-15" style="edgeStyle=orthogonalEdgeStyle;rounded=0;orthogonalLoop=1;jettySize=auto;html=1;" parent="1" source="2Nlbmb2SEIiZ4BsPeOTe-12" target="IwEzYZkcwkZSoT2hH-HC-9" edge="1">
          <mxGeometry relative="1" as="geometry">
            <mxPoint x="430" y="470.66" as="sourcePoint" />
            <mxPoint x="454.1600000000003" y="381.00000000000017" as="targetPoint" />
            <Array as="points">
              <mxPoint x="535" y="351" />
            </Array>
          </mxGeometry>
        </mxCell>
        <mxCell id="2Nlbmb2SEIiZ4BsPeOTe-12" value="dados brutos" style="shape=cylinder3;whiteSpace=wrap;html=1;boundedLbl=1;backgroundOutline=1;size=15;" parent="1" vertex="1">
          <mxGeometry x="500" y="136" width="70" height="80" as="geometry" />
        </mxCell>
        <mxCell id="2Nlbmb2SEIiZ4BsPeOTe-13" value="dados para modelo" style="shape=cylinder3;whiteSpace=wrap;html=1;boundedLbl=1;backgroundOutline=1;size=15;" parent="1" vertex="1">
          <mxGeometry x="760" y="430" width="70" height="80" as="geometry" />
        </mxCell>
        <mxCell id="2Nlbmb2SEIiZ4BsPeOTe-14" style="edgeStyle=orthogonalEdgeStyle;rounded=0;orthogonalLoop=1;jettySize=auto;html=1;exitX=1;exitY=0.5;exitDx=0;exitDy=0;" parent="1" source="IwEzYZkcwkZSoT2hH-HC-6" target="2Nlbmb2SEIiZ4BsPeOTe-12" edge="1">
          <mxGeometry relative="1" as="geometry">
            <Array as="points">
              <mxPoint x="470" y="47" />
              <mxPoint x="535" y="47" />
            </Array>
          </mxGeometry>
        </mxCell>
        <mxCell id="2Nlbmb2SEIiZ4BsPeOTe-16" style="edgeStyle=orthogonalEdgeStyle;rounded=0;orthogonalLoop=1;jettySize=auto;html=1;exitX=1;exitY=0.5;exitDx=0;exitDy=0;" parent="1" source="IwEzYZkcwkZSoT2hH-HC-9" target="2Nlbmb2SEIiZ4BsPeOTe-5" edge="1">
          <mxGeometry relative="1" as="geometry">
            <mxPoint x="470" y="355" as="sourcePoint" />
            <Array as="points">
              <mxPoint x="450" y="351" />
              <mxPoint x="450" y="470" />
            </Array>
          </mxGeometry>
        </mxCell>
        <mxCell id="2Nlbmb2SEIiZ4BsPeOTe-18" style="edgeStyle=orthogonalEdgeStyle;rounded=0;orthogonalLoop=1;jettySize=auto;html=1;" parent="1" source="2Nlbmb2SEIiZ4BsPeOTe-3" target="2Nlbmb2SEIiZ4BsPeOTe-13" edge="1">
          <mxGeometry relative="1" as="geometry">
            <Array as="points">
              <mxPoint x="740" y="360" />
              <mxPoint x="740" y="470" />
            </Array>
          </mxGeometry>
        </mxCell>
        <mxCell id="2Nlbmb2SEIiZ4BsPeOTe-21" value="Pipeline de ETL(python)" style="text;html=1;align=center;verticalAlign=middle;whiteSpace=wrap;rounded=0;fontStyle=1" parent="1" vertex="1">
          <mxGeometry x="310" y="274" width="170" height="20" as="geometry" />
        </mxCell>
        <mxCell id="2Nlbmb2SEIiZ4BsPeOTe-22" value="&lt;b&gt;1&lt;/b&gt;" style="ellipse;whiteSpace=wrap;html=1;aspect=fixed;" parent="1" vertex="1">
          <mxGeometry x="420" y="6" width="20" height="20" as="geometry" />
        </mxCell>
        <mxCell id="2Nlbmb2SEIiZ4BsPeOTe-23" value="&lt;b&gt;2&lt;/b&gt;" style="ellipse;whiteSpace=wrap;html=1;aspect=fixed;" parent="1" vertex="1">
          <mxGeometry x="440" y="301" width="20" height="20" as="geometry" />
        </mxCell>
        <mxCell id="2Nlbmb2SEIiZ4BsPeOTe-26" value="&lt;b&gt;3&lt;/b&gt;" style="ellipse;whiteSpace=wrap;html=1;aspect=fixed;" parent="1" vertex="1">
          <mxGeometry x="670" y="300" width="20" height="20" as="geometry" />
        </mxCell>
        <mxCell id="IwEzYZkcwkZSoT2hH-HC-4" value="Sistema Corporativo" style="text;html=1;align=center;verticalAlign=middle;whiteSpace=wrap;rounded=0;fontStyle=1" vertex="1" parent="1">
          <mxGeometry x="310" y="-40" width="130" height="20" as="geometry" />
        </mxCell>
        <mxCell id="IwEzYZkcwkZSoT2hH-HC-5" value="SQL" style="shape=cylinder3;whiteSpace=wrap;html=1;boundedLbl=1;backgroundOutline=1;size=15;" vertex="1" parent="1">
          <mxGeometry x="395" y="136" width="70" height="80" as="geometry" />
        </mxCell>
        <mxCell id="IwEzYZkcwkZSoT2hH-HC-6" value="Extração em c#" style="whiteSpace=wrap;html=1;aspect=fixed;" vertex="1" parent="1">
          <mxGeometry x="390" y="27" width="80" height="80" as="geometry" />
        </mxCell>
        <mxCell id="IwEzYZkcwkZSoT2hH-HC-7" style="edgeStyle=orthogonalEdgeStyle;rounded=0;orthogonalLoop=1;jettySize=auto;html=1;exitX=0.5;exitY=0;exitDx=0;exitDy=0;exitPerimeter=0;" edge="1" parent="1" source="IwEzYZkcwkZSoT2hH-HC-5" target="IwEzYZkcwkZSoT2hH-HC-6">
          <mxGeometry relative="1" as="geometry">
            <mxPoint x="390" y="115.5" as="sourcePoint" />
            <mxPoint x="435" y="45.5" as="targetPoint" />
            <Array as="points">
              <mxPoint x="430" y="116" />
              <mxPoint x="430" y="116" />
            </Array>
          </mxGeometry>
        </mxCell>
        <mxCell id="IwEzYZkcwkZSoT2hH-HC-9" value="Transformação" style="rounded=0;whiteSpace=wrap;html=1;" vertex="1" parent="1">
          <mxGeometry x="390" y="321" width="120" height="60" as="geometry" />
        </mxCell>
        <mxCell id="IwEzYZkcwkZSoT2hH-HC-10" value="Treinamento Modelo Dense" style="whiteSpace=wrap;html=1;aspect=fixed;" vertex="1" parent="1">
          <mxGeometry x="810" y="321" width="80" height="80" as="geometry" />
        </mxCell>
        <mxCell id="IwEzYZkcwkZSoT2hH-HC-11" style="edgeStyle=orthogonalEdgeStyle;rounded=0;orthogonalLoop=1;jettySize=auto;html=1;entryX=0.5;entryY=1;entryDx=0;entryDy=0;" edge="1" parent="1" source="2Nlbmb2SEIiZ4BsPeOTe-13" target="IwEzYZkcwkZSoT2hH-HC-10">
          <mxGeometry relative="1" as="geometry">
            <mxPoint x="840" y="484" as="sourcePoint" />
            <mxPoint x="920" y="414" as="targetPoint" />
            <Array as="points">
              <mxPoint x="850" y="470" />
            </Array>
          </mxGeometry>
        </mxCell>
        <mxCell id="IwEzYZkcwkZSoT2hH-HC-12" value="Dados Modelo treinado" style="shape=cylinder3;whiteSpace=wrap;html=1;boundedLbl=1;backgroundOutline=1;size=15;" vertex="1" parent="1">
          <mxGeometry x="740" y="10" width="70" height="80" as="geometry" />
        </mxCell>
        <mxCell id="IwEzYZkcwkZSoT2hH-HC-14" value="Utilização do modelo treinado em Produção simulada" style="text;html=1;align=center;verticalAlign=middle;whiteSpace=wrap;rounded=0;fontStyle=1" vertex="1" parent="1">
          <mxGeometry x="605" y="-10" width="310" height="20" as="geometry" />
        </mxCell>
        <mxCell id="IwEzYZkcwkZSoT2hH-HC-15" style="edgeStyle=orthogonalEdgeStyle;rounded=0;orthogonalLoop=1;jettySize=auto;html=1;" edge="1" parent="1" source="IwEzYZkcwkZSoT2hH-HC-10" target="IwEzYZkcwkZSoT2hH-HC-12">
          <mxGeometry relative="1" as="geometry">
            <mxPoint x="930" y="610" as="sourcePoint" />
            <mxPoint x="890" y="690" as="targetPoint" />
            <Array as="points">
              <mxPoint x="940" y="361" />
              <mxPoint x="940" y="50" />
            </Array>
          </mxGeometry>
        </mxCell>
        <mxCell id="IwEzYZkcwkZSoT2hH-HC-16" value="API de Predição&lt;div&gt;&lt;br&gt;&lt;/div&gt;&lt;div&gt;&lt;br&gt;&lt;/div&gt;&lt;div&gt;&lt;br&gt;&lt;/div&gt;&lt;div&gt;&lt;br&gt;&lt;/div&gt;&lt;div&gt;&lt;br&gt;&lt;/div&gt;" style="rounded=0;whiteSpace=wrap;html=1;" vertex="1" parent="1">
          <mxGeometry x="625" y="110" width="120" height="110" as="geometry" />
        </mxCell>
        <mxCell id="IwEzYZkcwkZSoT2hH-HC-17" style="edgeStyle=orthogonalEdgeStyle;rounded=0;orthogonalLoop=1;jettySize=auto;html=1;exitX=0.044;exitY=0.566;exitDx=0;exitDy=0;exitPerimeter=0;" edge="1" parent="1" source="IwEzYZkcwkZSoT2hH-HC-12" target="IwEzYZkcwkZSoT2hH-HC-16">
          <mxGeometry relative="1" as="geometry">
            <mxPoint x="439.48" y="30" as="sourcePoint" />
            <mxPoint x="494.48" y="109" as="targetPoint" />
            <Array as="points">
              <mxPoint x="685" y="55" />
            </Array>
          </mxGeometry>
        </mxCell>
        <mxCell id="IwEzYZkcwkZSoT2hH-HC-18" value="Sistema Corporativo simulado" style="rounded=0;whiteSpace=wrap;html=1;" vertex="1" parent="1">
          <mxGeometry x="795" y="110" width="120" height="60" as="geometry" />
        </mxCell>
        <mxCell id="IwEzYZkcwkZSoT2hH-HC-19" style="edgeStyle=orthogonalEdgeStyle;rounded=0;orthogonalLoop=1;jettySize=auto;html=1;exitX=1;exitY=0.5;exitDx=0;exitDy=0;" edge="1" parent="1" source="IwEzYZkcwkZSoT2hH-HC-16" target="IwEzYZkcwkZSoT2hH-HC-18">
          <mxGeometry relative="1" as="geometry">
            <mxPoint x="439.48" y="91" as="sourcePoint" />
            <mxPoint x="494.48" y="170" as="targetPoint" />
            <Array as="points">
              <mxPoint x="745" y="130" />
            </Array>
          </mxGeometry>
        </mxCell>
        <mxCell id="IwEzYZkcwkZSoT2hH-HC-20" style="edgeStyle=orthogonalEdgeStyle;rounded=0;orthogonalLoop=1;jettySize=auto;html=1;" edge="1" parent="1" source="IwEzYZkcwkZSoT2hH-HC-18" target="IwEzYZkcwkZSoT2hH-HC-16">
          <mxGeometry relative="1" as="geometry">
            <mxPoint x="750" y="210" as="sourcePoint" />
            <mxPoint x="800" y="210" as="targetPoint" />
            <Array as="points">
              <mxPoint x="775" y="150" />
              <mxPoint x="775" y="150" />
            </Array>
          </mxGeometry>
        </mxCell>
        <mxCell id="IwEzYZkcwkZSoT2hH-HC-22" value="Extração Sistema Corporativo" style="text;html=1;align=center;verticalAlign=middle;whiteSpace=wrap;rounded=0;fontStyle=1" vertex="1" parent="1">
          <mxGeometry x="340" y="-10" width="180" height="20" as="geometry" />
        </mxCell>
        <mxCell id="IwEzYZkcwkZSoT2hH-HC-23" value="Modelo Dense Layers" style="whiteSpace=wrap;html=1;aspect=fixed;" vertex="1" parent="1">
          <mxGeometry x="657.5" y="150" width="55" height="55" as="geometry" />
        </mxCell>
      </root>
    </mxGraphModel>
  </diagram>
</mxfile>
